<svg xmlns="http://www.w3.org/2000/svg" viewBox="0 0 1024 1024">
  <g>
    <path fill="#edecf5" d="M846.4,740.5l-1.9,1.6c-61.8,54.2-134.8,77.6-200.5,64.7c-59.3-11.8-101.8-50.9-142.7-88.8
		c-44.4-41-86.3-79.8-148-86.4s-129.2,21.8-182.5,78.8c20.7,28.8,119.2,147.3,279.8,49.4c4.8-2,10.2,0.3,12.2,5.1
		c1.6,3.9,0.4,8.3-2.9,10.9c-48.3,29.4-91.8,40.5-129.8,40.5c-114.3,0-179-100.4-179.8-101.8c-2.2-3.5-1.8-8.1,0.9-11.2
		c58.1-65.3,132.2-98,203.3-90.4c67.9,7.3,114.1,50,158.6,91.2c40.9,37.3,79.5,73.5,133.7,84c60.1,11.9,127.3-10.1,184.5-60.4
		l2.2-1.9c7.3-5.8,14.2-12.1,20.8-18.7c-28-66-104.2-81.3-119.4-84c-27.7,17-57.7,30-89.1,38.5c-0.8,0.1-1.7,0.1-2.5,0
		c-5.2,0.7-9.9-2.9-10.6-8.1c-0.7-5.2,2.9-9.9,8.1-10.6C735.9,616.1,794.7,564.5,816,490c8.8-31.9,10.5-65.3,4.9-97.9
		c-129-13.2-183.4,63.9-191.4,76.5c-7.2,50.4-30,100.6-68.3,150c-3.4,3.9-9.3,4.3-13.2,0.9c-3.5-3.1-4.2-8.4-1.6-12.3
		c37.3-46.2,59-93.9,65.5-141.9l0,0c2.7-20,2.7-40.2,0-60.2c-12.3-93.3-80.7-158.6-101.3-176.4c-107.8,99.8-88.5,207.6-65.7,265.5
		c8.5,14.1,15.9,28.8,22.4,43.9c2.6,4.5,1,10.2-3.5,12.8c-4.5,2.6-10.2,1-12.8-3.5c-8.3-13.1-15.3-27-21-41.5
		c-33.6-56.9-79-92.3-135.4-105.5c-28.9-6.7-58.9-7.1-88-1.2c-27,81.6,29.5,155.2,30,156c3.2,4.1,2.4,9.9-1.6,13.1
		c-4.1,3.2-9.9,2.4-13.1-1.6l0,0c-2.7-3.5-65.3-85.3-31.2-178.6c1-2.8,3.3-4.9,6.2-5.7c79.7-18.3,163.1,8.5,217.2,70
		c-12.9-66.6-5-158.6,90.2-242.5c3.4-2.8,8.4-2.8,11.8,0c4.2,2.5,98.7,75.7,114.5,193.1c1.5,11.4,2.2,22.9,2.1,34.4
		c28.6-30.1,90.3-74.6,197.8-61.5c3.8,0.5,6.9,3.2,7.8,6.9c0,1.7,33.5,137.8-81.5,226.7c32.8,8.4,93.3,32.2,117.3,95.9
		C877.3,712.6,872.5,718.6,846.4,740.5z" />
  </g>
</svg>